<svg width="64" height="78" viewBox="0 0 64 78" fill="none" xmlns="http://www.w3.org/2000/svg">
<path d="M38.889 46.3063C37.1899 48.2219 35.257 50.4298 33.0901 52.9298C32.0791 54.1015 30.8018 54.7363 29.2583 54.8343C27.7147 54.9323 26.3571 54.4758 25.1854 53.4648C24.0137 52.4538 23.3788 51.1765 23.2808 49.6329C23.1828 48.0894 23.6393 46.7317 24.6503 45.56L30.6709 38.8147L24.6803 33.2742C23.581 32.1848 23.0019 30.8865 22.9431 29.3792C22.9205 27.8327 23.4538 26.5098 24.5431 25.4105C25.5933 24.275 26.8916 23.696 28.4381 23.6733C29.9455 23.6145 31.2669 24.1101 32.4024 25.1603C34.1281 26.829 36.0677 28.6592 38.2213 30.6509L45.4002 23.1244C46.4895 22.0251 47.7893 21.4838 49.2996 21.5003C50.8461 21.4777 52.169 22.011 53.2683 23.1003C54.4037 24.1505 54.9828 25.4488 55.0054 26.9953C54.9889 28.5056 54.4556 29.8285 53.4054 30.964C50.9008 33.5149 48.5788 35.9078 46.4393 38.1425C49.373 40.7831 51.7012 42.9001 53.424 44.4934C54.5595 45.5436 55.1581 46.86 55.2199 48.4428C55.2788 49.9501 54.7831 51.2715 53.733 52.407C52.6828 53.5425 51.3859 54.1592 49.8424 54.2572C48.2959 54.2799 46.9549 53.7661 45.8194 52.7159L38.889 46.3063Z" fill="#E31C1B"/>
</svg>
