<?xml version="1.0" standalone="no"?>
<!DOCTYPE svg PUBLIC "-//W3C//DTD SVG 20010904//EN"
 "http://www.w3.org/TR/2001/REC-SVG-20010904/DTD/svg10.dtd">
<svg version="1.0" xmlns="http://www.w3.org/2000/svg"
 width="148.000000pt" height="148.000000pt" viewBox="0 0 148.000000 148.000000"
 preserveAspectRatio="xMidYMid meet">

<g transform="translate(0.000000,148.000000) scale(0.100000,-0.100000)"
fill="#000000" stroke="none">
<path d="M521 1445 c-96 -21 -150 -45 -172 -76 -13 -19 -28 -28 -44 -27 -43 4
-159 -119 -213 -228 -17 -33 -38 -89 -47 -124 -9 -35 -23 -76 -31 -92 -31 -60
-6 -143 56 -185 18 -13 44 -23 57 -23 16 0 27 -8 34 -27 39 -105 122 -208 208
-258 58 -35 67 -63 25 -86 -38 -20 -114 -107 -135 -155 -11 -23 -20 -64 -21
-90 l-3 -49 417 -3 416 -2 29 81 c20 58 34 83 49 89 50 20 77 86 54 131 -10
18 -6 19 87 19 58 0 108 5 122 13 58 29 89 119 54 154 -11 11 -25 40 -32 66
-16 57 -70 121 -125 149 -22 11 -42 21 -44 23 -1 1 4 15 13 31 19 36 19 87 1
122 -7 15 -21 55 -30 89 -42 167 -176 333 -326 405 -129 63 -268 81 -399 53z
m49 -300 c41 -13 120 -39 175 -59 55 -19 134 -41 175 -47 119 -19 149 -28 165
-53 22 -34 37 -132 30 -195 -6 -52 -9 -58 -45 -79 -49 -28 -86 -75 -107 -138
-9 -27 -24 -59 -34 -72 -10 -13 -16 -29 -13 -37 3 -8 -6 -20 -22 -28 -27 -14
-29 -14 -46 14 -20 32 -55 38 -105 17 -40 -16 -162 -17 -195 -1 -44 21 -84 16
-107 -14 -20 -24 -23 -25 -49 -12 -46 23 -138 124 -166 181 -42 86 -60 189
-47 278 12 87 70 212 112 243 57 42 146 42 279 2z m-435 -310 c0 -58 -1 -105
-3 -105 -2 0 -15 6 -30 14 -61 32 -73 117 -23 167 50 50 56 41 56 -76z m1064
89 c30 -21 52 -74 44 -105 -11 -41 -34 -69 -58 -69 -23 0 -24 3 -27 95 -3 101
0 107 41 79z m110 -257 c39 -26 81 -89 81 -122 0 -11 -11 -15 -44 -15 -28 0
-46 -5 -49 -14 -9 -24 15 -36 75 -36 55 0 58 -1 58 -25 0 -14 -9 -34 -20 -45
-19 -19 -33 -20 -213 -20 -212 0 -217 1 -232 63 l-7 27 139 0 c140 0 168 6
156 36 -4 11 -33 14 -129 14 -68 0 -124 2 -124 5 0 17 34 83 53 104 61 66 179
79 256 28z m-621 -269 c7 -7 12 -21 12 -33 0 -29 -19 -45 -51 -45 -44 0 -59
10 -59 39 0 35 17 51 55 51 17 0 36 -5 43 -12z m260 -18 c12 -20 10 -26 -24
-78 -1 -2 -14 4 -28 13 -33 22 -34 58 -3 73 32 16 41 14 55 -8z m187 -46 c27
-11 38 -53 20 -80 -14 -22 -22 -24 -100 -24 l-85 0 0 35 c0 53 28 75 94 75 30
0 62 -3 71 -6z m-664 -83 c17 -6 37 -4 64 6 48 17 173 20 202 5 34 -19 88 -15
108 8 17 19 18 19 46 -3 34 -27 35 -42 7 -129 l-22 -68 -208 0 -208 0 0 50 c0
43 -3 50 -20 50 -17 0 -20 -7 -20 -50 l0 -50 -70 0 c-60 0 -70 2 -70 18 1 37
44 109 93 155 44 42 53 46 62 33 7 -8 23 -19 36 -25z m603 -83 c-31 -98 -25
-93 -92 -96 l-61 -3 20 61 21 60 60 0 c57 0 59 -1 52 -22z"/>
<path d="M401 896 c-20 -23 -10 -71 14 -71 15 0 21 8 23 31 4 38 -19 62 -37
40z"/>
<path d="M861 901 c-7 -5 -11 -22 -9 -42 2 -26 8 -34 23 -34 15 0 21 8 23 31
3 34 -16 58 -37 45z"/>
<path d="M566 851 c-17 -27 50 -66 99 -57 41 8 74 41 57 58 -9 9 -18 8 -36 -2
-23 -12 -41 -11 -92 5 -12 4 -25 2 -28 -4z"/>
<path d="M627 214 c-9 -9 4 -34 18 -34 14 0 27 25 18 34 -4 3 -12 6 -18 6 -6
0 -14 -3 -18 -6z"/>
<path d="M630 135 c-10 -12 -9 -16 5 -21 23 -9 40 10 22 25 -11 9 -17 8 -27
-4z"/>
</g>
</svg>
